<?xml version="1.0" encoding="utf-8"?>
<!-- Generator: Adobe Illustrator 26.3.1, SVG Export Plug-In . SVG Version: 6.00 Build 0)  -->
<svg version="1.1" id="Layer_1" xmlns="http://www.w3.org/2000/svg" xmlns:xlink="http://www.w3.org/1999/xlink" x="0px" y="0px"
	 viewBox="0 0 480 250" style="enable-background:new 0 0 480 250;" xml:space="preserve">
<style type="text/css">
	.st0{fill:#84B135;}
	.st1{fill:#0095A9;}
	.st2{fill:#E87200;}
	.st3{fill:#9578D3;}
	.st4{fill:#E43D30;}
	.st5{fill:#CCDB2A;}
	.st6{fill:#FAFAFA;}
</style>
<g>
	<g>
		<g>
			<path d="M415.37,168.47h6.98v1.63h-2.51v6.85h-1.95v-6.85h-2.51V168.47z M433.44,168.47v8.48h-1.71v-4.95l0.14-1.17l-2.51,4.67
				c-0.07,0.14-0.16,0.25-0.28,0.32c-0.12,0.07-0.25,0.11-0.39,0.11h-0.29c-0.32,0-0.55-0.14-0.67-0.43l-2.51-4.65l0.13,1.16v4.95
				h-1.71v-8.48h1.66c0.17,0,0.3,0.02,0.38,0.05c0.08,0.03,0.17,0.12,0.28,0.25l2.27,4.15c0.12,0.25,0.23,0.52,0.31,0.83
				c0.05-0.14,0.1-0.28,0.15-0.42c0.05-0.14,0.11-0.27,0.18-0.41l2.28-4.15c0.1-0.13,0.2-0.22,0.28-0.25
				c0.08-0.03,0.2-0.05,0.36-0.05H433.44z"/>
		</g>
		<g>
			<g>
				<g>
					<g>
						<path d="M67.72,194.73c0,2.31-0.29,4.42-0.87,6.31c-0.58,1.9-1.45,3.52-2.62,4.88c-1.17,1.36-2.63,2.41-4.39,3.16
							c-1.76,0.75-3.84,1.12-6.23,1.12c-1.08,0-2.15-0.06-3.2-0.17c-1.05-0.11-2.15-0.3-3.28-0.57l0.51-5.6
							c0.06-0.49,0.26-0.89,0.6-1.19c0.34-0.3,0.82-0.46,1.45-0.46c0.32,0,0.72,0.05,1.19,0.16c0.47,0.1,1.04,0.16,1.71,0.16
							c0.93,0,1.74-0.13,2.43-0.38s1.27-0.68,1.72-1.28c0.46-0.6,0.8-1.38,1.02-2.35s0.34-2.16,0.34-3.58v-26.61h9.61V194.73z"/>
						<path d="M99.96,180.26v29.49H94.5c-1.1,0-1.82-0.49-2.16-1.48l-0.51-1.71c-0.57,0.55-1.16,1.05-1.76,1.49
							c-0.61,0.45-1.26,0.82-1.95,1.14c-0.69,0.31-1.44,0.56-2.25,0.74c-0.81,0.18-1.68,0.27-2.63,0.27c-1.61,0-3.04-0.28-4.28-0.84
							c-1.24-0.56-2.29-1.34-3.14-2.35s-1.5-2.19-1.93-3.55c-0.44-1.36-0.65-2.86-0.65-4.49v-18.71h8.81v18.71
							c0,1.46,0.33,2.59,1,3.38c0.66,0.8,1.64,1.19,2.93,1.19c0.97,0,1.87-0.2,2.72-0.61c0.84-0.41,1.66-0.96,2.46-1.66v-21.01
							H99.96z"/>
						<path d="M114.06,183.45c0.57-0.53,1.16-1.02,1.76-1.48c0.61-0.46,1.26-0.84,1.95-1.15c0.69-0.31,1.44-0.56,2.25-0.74
							c0.81-0.18,1.68-0.27,2.63-0.27c1.61,0,3.04,0.28,4.28,0.84c1.24,0.56,2.29,1.34,3.14,2.33s1.5,2.18,1.93,3.55
							c0.44,1.38,0.65,2.87,0.65,4.48v18.74h-8.81v-18.74c0-1.44-0.33-2.56-1-3.37s-1.64-1.21-2.93-1.21c-0.97,0-1.87,0.2-2.72,0.61
							c-0.84,0.41-1.66,0.96-2.46,1.66v21.04h-8.81v-29.49h5.46c1.1,0,1.82,0.49,2.16,1.48L114.06,183.45z"/>
						<path d="M148.27,172.19c0,0.7-0.14,1.36-0.43,1.98c-0.28,0.62-0.67,1.16-1.17,1.62c-0.49,0.46-1.07,0.83-1.72,1.11
							c-0.65,0.27-1.35,0.41-2.09,0.41c-0.72,0-1.39-0.14-2.02-0.41s-1.18-0.64-1.66-1.11c-0.48-0.46-0.86-1-1.14-1.62
							c-0.27-0.62-0.41-1.28-0.41-1.98c0-0.72,0.14-1.39,0.41-2.02c0.27-0.63,0.65-1.18,1.14-1.65s1.04-0.84,1.66-1.11
							c0.63-0.26,1.3-0.4,2.02-0.4c0.74,0,1.44,0.13,2.09,0.4c0.65,0.27,1.23,0.64,1.72,1.11c0.49,0.47,0.88,1.02,1.17,1.65
							C148.13,170.79,148.27,171.47,148.27,172.19z M147.36,180.26v29.49h-8.81v-29.49H147.36z"/>
						<path d="M161.8,183.9c1.16-1.23,2.47-2.24,3.94-3.03c1.47-0.79,3.22-1.18,5.25-1.18c1.54,0,2.96,0.34,4.27,1.02
							c1.31,0.68,2.44,1.67,3.38,2.96s1.69,2.87,2.23,4.73c0.54,1.87,0.81,3.99,0.81,6.36c0,2.22-0.31,4.26-0.92,6.14
							c-0.62,1.88-1.48,3.51-2.59,4.89s-2.44,2.46-3.98,3.24c-1.55,0.78-3.26,1.17-5.13,1.17c-1.54,0-2.82-0.22-3.87-0.65
							s-1.99-1.02-2.84-1.76v11.32h-8.81v-38.84h5.46c1.1,0,1.82,0.49,2.16,1.48L161.8,183.9z M162.34,201.73
							c0.66,0.72,1.38,1.23,2.16,1.54c0.78,0.3,1.59,0.46,2.45,0.46c0.81,0,1.56-0.16,2.25-0.48c0.68-0.32,1.27-0.84,1.78-1.55
							c0.5-0.71,0.9-1.63,1.18-2.77c0.28-1.14,0.43-2.52,0.43-4.15c0-1.55-0.11-2.86-0.34-3.92s-0.55-1.92-0.95-2.57
							c-0.41-0.65-0.9-1.12-1.46-1.41s-1.2-0.43-1.91-0.43c-1.29,0-2.35,0.24-3.18,0.71c-0.83,0.47-1.63,1.17-2.39,2.08V201.73z"/>
						<path d="M193.48,196.58c0.28,2.46,1.03,4.25,2.25,5.36c1.21,1.11,2.78,1.66,4.69,1.66c1.02,0,1.9-0.12,2.64-0.37
							c0.74-0.25,1.4-0.52,1.98-0.82c0.58-0.3,1.11-0.58,1.59-0.82s0.99-0.37,1.52-0.37c0.7,0,1.23,0.26,1.59,0.77l2.56,3.16
							c-0.91,1.04-1.89,1.89-2.94,2.54s-2.13,1.17-3.24,1.54c-1.11,0.37-2.22,0.63-3.33,0.77c-1.11,0.14-2.17,0.21-3.17,0.21
							c-2.07,0-4-0.34-5.81-1.01c-1.81-0.67-3.39-1.67-4.75-3c-1.36-1.33-2.43-2.98-3.21-4.95c-0.79-1.97-1.18-4.26-1.18-6.88
							c0-1.97,0.34-3.84,1.01-5.6c0.67-1.76,1.64-3.31,2.9-4.63c1.26-1.33,2.79-2.38,4.58-3.16c1.79-0.78,3.81-1.17,6.07-1.17
							c1.95,0,3.74,0.3,5.36,0.91s3.01,1.49,4.18,2.64c1.17,1.16,2.08,2.57,2.73,4.25c0.65,1.68,0.98,3.58,0.98,5.7
							c0,0.66-0.03,1.2-0.09,1.62c-0.06,0.42-0.16,0.75-0.31,1c-0.15,0.25-0.36,0.42-0.61,0.51c-0.25,0.1-0.58,0.14-0.98,0.14
							H193.48z M204.57,191.46c0-0.7-0.09-1.38-0.27-2.05c-0.18-0.66-0.47-1.26-0.88-1.78s-0.94-0.94-1.61-1.27
							c-0.66-0.32-1.47-0.48-2.42-0.48c-1.67,0-2.98,0.48-3.92,1.44s-1.57,2.34-1.88,4.14H204.57z"/>
						<path d="M225.12,184.81c0.91-1.59,1.96-2.84,3.14-3.75c1.18-0.91,2.54-1.36,4.08-1.36c1.33,0,2.41,0.31,3.24,0.94l-0.57,6.48
							c-0.1,0.42-0.25,0.7-0.47,0.85s-0.52,0.23-0.9,0.23c-0.15,0-0.35-0.01-0.6-0.03c-0.25-0.02-0.5-0.04-0.77-0.07
							s-0.54-0.06-0.81-0.09c-0.28-0.03-0.53-0.04-0.75-0.04c-1.29,0-2.32,0.34-3.08,1.02s-1.42,1.63-1.95,2.84v17.91h-8.81v-29.49
							h5.23c0.44,0,0.8,0.04,1.09,0.11c0.29,0.08,0.54,0.19,0.74,0.36s0.35,0.37,0.46,0.64c0.1,0.27,0.19,0.59,0.27,0.97
							L225.12,184.81z"/>
						<path d="M287.08,209.75h-4.26c-0.49,0-0.89-0.12-1.19-0.37c-0.3-0.25-0.53-0.56-0.68-0.94l-3.81-9.84h-18.28l-3.81,9.84
							c-0.11,0.34-0.33,0.64-0.65,0.91c-0.32,0.27-0.72,0.4-1.19,0.4h-4.26L265.21,169h5.57L287.08,209.75z M275.59,194.62
							l-6.4-16.58c-0.19-0.49-0.39-1.07-0.6-1.72c-0.21-0.65-0.41-1.35-0.6-2.09c-0.4,1.54-0.81,2.82-1.22,3.84l-6.4,16.55H275.59z"
							/>
						<path d="M295.98,185.41c1.21-1.5,2.62-2.7,4.21-3.61c1.59-0.91,3.41-1.36,5.46-1.36c1.67,0,3.17,0.32,4.52,0.95
							c1.35,0.64,2.49,1.57,3.44,2.82c0.95,1.24,1.68,2.78,2.19,4.62c0.51,1.84,0.77,3.95,0.77,6.34c0,2.12-0.29,4.1-0.85,5.93
							s-1.39,3.41-2.46,4.75c-1.07,1.34-2.38,2.39-3.92,3.16c-1.54,0.77-3.28,1.15-5.22,1.15c-1.76,0-3.28-0.3-4.54-0.9
							c-1.26-0.6-2.37-1.43-3.34-2.49v12.74h-5.09v-38.56h3.04c0.72,0,1.17,0.35,1.34,1.05L295.98,185.41z M296.24,202.81
							c0.93,1.25,1.94,2.13,3.04,2.64c1.1,0.51,2.33,0.77,3.7,0.77c2.69,0,4.76-0.96,6.2-2.87s2.16-4.64,2.16-8.19
							c0-1.88-0.17-3.49-0.5-4.83c-0.33-1.35-0.81-2.45-1.44-3.31c-0.62-0.86-1.39-1.49-2.3-1.89s-1.94-0.6-3.1-0.6
							c-1.65,0-3.09,0.38-4.34,1.14c-1.24,0.76-2.38,1.83-3.43,3.21V202.81z"/>
						<path d="M339.8,185.69c-0.23,0.42-0.58,0.63-1.05,0.63c-0.28,0-0.61-0.1-0.97-0.31c-0.36-0.21-0.8-0.44-1.32-0.7
							s-1.14-0.49-1.86-0.71c-0.72-0.22-1.57-0.33-2.56-0.33c-0.85,0-1.62,0.11-2.3,0.33c-0.68,0.22-1.27,0.52-1.75,0.9
							s-0.85,0.82-1.11,1.32c-0.26,0.5-0.38,1.05-0.38,1.63c0,0.74,0.21,1.36,0.64,1.85c0.43,0.49,0.99,0.92,1.69,1.28
							s1.5,0.68,2.39,0.95c0.89,0.28,1.81,0.57,2.74,0.88c0.94,0.31,1.85,0.66,2.74,1.04c0.89,0.38,1.69,0.85,2.39,1.42
							s1.27,1.27,1.69,2.09c0.43,0.83,0.64,1.82,0.64,2.97c0,1.33-0.24,2.55-0.71,3.68c-0.47,1.13-1.18,2.1-2.1,2.93
							c-0.93,0.83-2.07,1.47-3.41,1.95s-2.9,0.71-4.66,0.71c-2.01,0-3.83-0.33-5.46-0.98c-1.63-0.65-3.01-1.49-4.15-2.52l1.19-1.93
							c0.15-0.25,0.33-0.44,0.54-0.57c0.21-0.13,0.47-0.2,0.8-0.2c0.34,0,0.7,0.13,1.08,0.4c0.38,0.27,0.84,0.56,1.38,0.88
							s1.2,0.62,1.98,0.88c0.78,0.27,1.74,0.4,2.9,0.4c0.99,0,1.85-0.13,2.59-0.38s1.35-0.6,1.85-1.04
							c0.49-0.44,0.86-0.94,1.09-1.51s0.36-1.17,0.36-1.82c0-0.8-0.21-1.45-0.64-1.98s-0.99-0.97-1.69-1.34
							c-0.7-0.37-1.5-0.69-2.4-0.97c-0.9-0.27-1.82-0.56-2.76-0.87c-0.94-0.3-1.86-0.65-2.76-1.04s-1.7-0.88-2.4-1.46
							c-0.7-0.59-1.27-1.31-1.69-2.17s-0.64-1.91-0.64-3.14c0-1.1,0.23-2.16,0.68-3.17c0.46-1.01,1.12-1.91,1.99-2.67
							s1.94-1.38,3.21-1.83c1.27-0.46,2.72-0.68,4.35-0.68c1.9,0,3.6,0.3,5.1,0.9c1.51,0.6,2.81,1.42,3.91,2.46L339.8,185.69z"/>
						<path d="M356.49,210.2c-2.28,0-4.02-0.63-5.25-1.91c-1.22-1.27-1.83-3.1-1.83-5.49v-17.63h-3.47c-0.3,0-0.56-0.09-0.77-0.27
							c-0.21-0.18-0.31-0.46-0.31-0.84v-2.02l4.72-0.6l1.17-8.9c0.06-0.29,0.18-0.52,0.38-0.7c0.2-0.18,0.46-0.27,0.78-0.27h2.56
							v9.92h8.33v3.67h-8.33v17.29c0,1.21,0.29,2.11,0.88,2.7c0.59,0.59,1.35,0.88,2.27,0.88c0.53,0,0.99-0.07,1.38-0.21
							c0.39-0.14,0.73-0.3,1.01-0.47s0.53-0.33,0.73-0.47c0.2-0.14,0.37-0.21,0.53-0.21c0.27,0,0.5,0.16,0.71,0.48l1.48,2.42
							c-0.87,0.82-1.92,1.46-3.16,1.92C359.07,209.97,357.8,210.2,356.49,210.2z"/>
						<path d="M372.84,186.72c0.91-1.97,2.03-3.51,3.36-4.62c1.33-1.11,2.95-1.66,4.86-1.66c0.61,0,1.19,0.07,1.75,0.2
							c0.56,0.13,1.06,0.34,1.49,0.62l-0.37,3.78c-0.11,0.47-0.4,0.71-0.85,0.71c-0.27,0-0.65-0.06-1.17-0.17
							c-0.51-0.11-1.09-0.17-1.73-0.17c-0.91,0-1.72,0.13-2.43,0.4s-1.35,0.66-1.91,1.18c-0.56,0.52-1.06,1.17-1.51,1.93
							c-0.45,0.77-0.85,1.64-1.21,2.63v18.2h-5.09v-28.8h2.9c0.55,0,0.93,0.1,1.14,0.31c0.21,0.21,0.35,0.57,0.43,1.08
							L372.84,186.72z"/>
						<path d="M387.54,185.01c1.59-1.54,3.31-2.68,5.15-3.44c1.84-0.76,3.88-1.14,6.11-1.14c1.61,0,3.04,0.27,4.29,0.8
							c1.25,0.53,2.3,1.27,3.16,2.22c0.85,0.95,1.5,2.09,1.93,3.44c0.44,1.35,0.65,2.83,0.65,4.44v18.43h-2.25
							c-0.49,0-0.87-0.08-1.14-0.24c-0.27-0.16-0.47-0.48-0.63-0.95l-0.57-2.73c-0.76,0.7-1.5,1.32-2.22,1.86
							c-0.72,0.54-1.48,1-2.27,1.37c-0.8,0.37-1.65,0.65-2.54,0.85c-0.9,0.2-1.9,0.3-3,0.3c-1.12,0-2.17-0.16-3.16-0.47
							c-0.99-0.31-1.84-0.78-2.57-1.41c-0.73-0.62-1.31-1.42-1.73-2.37c-0.43-0.96-0.64-2.09-0.64-3.4c0-1.14,0.31-2.23,0.94-3.28
							c0.63-1.05,1.64-1.99,3.04-2.8c1.4-0.82,3.23-1.48,5.49-2s5.02-0.82,8.3-0.9v-2.25c0-2.24-0.48-3.93-1.45-5.08
							c-0.97-1.15-2.38-1.72-4.24-1.72c-1.25,0-2.3,0.16-3.14,0.47c-0.84,0.31-1.57,0.66-2.19,1.05c-0.62,0.39-1.15,0.74-1.59,1.05
							c-0.45,0.31-0.89,0.47-1.32,0.47c-0.34,0-0.63-0.09-0.88-0.27c-0.25-0.18-0.46-0.4-0.63-0.67L387.54,185.01z M403.89,196.78
							c-2.33,0.08-4.32,0.26-5.96,0.55s-2.98,0.68-4.01,1.15s-1.78,1.03-2.25,1.68c-0.46,0.64-0.7,1.36-0.7,2.16
							c0,0.76,0.12,1.41,0.37,1.96s0.58,1,1.01,1.35c0.43,0.35,0.93,0.61,1.51,0.77c0.58,0.16,1.2,0.24,1.86,0.24
							c0.89,0,1.71-0.09,2.45-0.27c0.74-0.18,1.44-0.44,2.09-0.78s1.28-0.75,1.88-1.22c0.6-0.47,1.18-1.01,1.75-1.62V196.78z"/>
					</g>
				</g>
			</g>
		</g>
	</g>
</g>
<path d="M284.21,134.19h-88.1c-3.54,0-6.4-2.87-6.4-6.4V39.7c0-3.54,2.87-6.4,6.4-6.4h88.1c3.54,0,6.4,2.87,6.4,6.4v88.1
	C290.61,131.33,287.75,134.19,284.21,134.19z"/>
<path class="st0" d="M218.52,65.49H200.3c-1.87,0-3.39-1.52-3.39-3.39V43.89c0-1.87,1.52-3.39,3.39-3.39h18.21
	c1.87,0,3.39,1.52,3.39,3.39V62.1C221.9,63.97,220.39,65.49,218.52,65.49z"/>
<path class="st1" d="M249.27,65.49h-18.21c-1.87,0-3.39-1.52-3.39-3.39V43.89c0-1.87,1.52-3.39,3.39-3.39h18.21
	c1.87,0,3.39,1.52,3.39,3.39V62.1C252.65,63.97,251.14,65.49,249.27,65.49z"/>
<path class="st2" d="M218.52,96.24H200.3c-1.87,0-3.39-1.52-3.39-3.39V74.64c0-1.87,1.52-3.39,3.39-3.39h18.21
	c1.87,0,3.39,1.52,3.39,3.39v18.21C221.9,94.72,220.39,96.24,218.52,96.24z"/>
<path class="st3" d="M280.02,96.24h-18.21c-1.87,0-3.39-1.52-3.39-3.39V74.64c0-1.87,1.52-3.39,3.39-3.39h18.21
	c1.87,0,3.39,1.52,3.39,3.39v18.21C283.41,94.72,281.89,96.24,280.02,96.24z"/>
<path class="st4" d="M218.52,126.99H200.3c-1.87,0-3.39-1.52-3.39-3.39v-18.21c0-1.87,1.52-3.39,3.39-3.39h18.21
	c1.87,0,3.39,1.52,3.39,3.39v18.21C221.9,125.47,220.39,126.99,218.52,126.99z"/>
<path class="st5" d="M280.02,126.99h-18.21c-1.87,0-3.39-1.52-3.39-3.39v-18.21c0-1.87,1.52-3.39,3.39-3.39h18.21
	c1.87,0,3.39,1.52,3.39,3.39v18.21C283.41,125.47,281.89,126.99,280.02,126.99z"/>
<path class="st6" d="M249.27,96.24h-18.21c-1.87,0-3.39-1.52-3.39-3.39V74.64c0-1.87,1.52-3.39,3.39-3.39h18.21
	c1.87,0,3.39,1.52,3.39,3.39v18.21C252.65,94.72,251.14,96.24,249.27,96.24z"/>
</svg>
